:version 1.10
:name ASF
:units
  mass 1
  length 1
  angle deg
:documentation
  ASF file generated by Kaydara
:root
  axis xyz
  order  tx ty tz rx ry rz
  position 0 0 0
  orientation 0 0 0
:bonedata
  begin
    id 1
    name RightUpLegDummy
    direction -1 2.30186e-007 8.31532e-007
    length 4.04083
    axis 0 0 0 xyz
  end
  begin
    id 2
    name RightUpLeg
    direction -0.000919234 -0.999985 0.00544864
    length 17.4221
    axis -3.80308 -0.00076134 -0.0523649 xyz
    dof rx ry rz
  end
  begin
    id 3
    name RightLeg
    direction -0.000919271 -0.999984 -0.00555045
    length 17.1239
    axis 4.00314 0.0181274 -0.183583 xyz
    dof rx ry rz
  end
  begin
    id 4
    name RightFoot
    direction -2.57843e-005 -4.04509e-007 1
    length 6.72091
    axis 8.18909e-005 -0.122003 -0.403008 xyz
    dof rx ry rz
  end
  begin
    id 5
    name RightToes
    direction 0.00116825 -0.014069 0.9999
    length 3.85082
    axis 0.000514414 0.540638 -0.356797 xyz
    dof rx ry rz
  end
  begin
    id 6
    name SpineDummy
    direction 0.0168869 0.966876 -0.254689
    length 6.99894
    axis 0 0 0 xyz
  end
  begin
    id 7
    name Spine
    direction -0.0132008 0.999903 0.00446247
    length 11.1999
    axis -0.00148109 0.00725429 0.756411 xyz
    dof rx ry rz
  end
  begin
    id 8
    name Spine1
    direction 0 0 0
    length 0
    axis -0.000934958 0.0245693 1.46543 xyz
    dof rx ry rz
  end
  begin
    id 9
    name HEadDummy
    direction -0.0255732 0.999672 0.00128215
    length 3.43865
    axis -0.000934958 0.0245693 1.46543 xyz
  end
  begin
    id 10
    name HEad
    direction -0.0472656 0.980052 0.19304
    length 5.12695
    axis -0.000934954 0.0245693 1.46543 xyz
    dof rx ry rz
  end
  begin
    id 11
    name LeftShoulder1Dummy
    direction 0.953098 0.301717 -0.023914
    length 3.68488
    axis -0.000934958 0.0245693 1.46543 xyz
  end
  begin
    id 12
    name LeftShoulder1
    direction 0.962466 0.271167 0.0112566
    length 3.13809
    axis -0.000934958 0.0245693 1.46543 xyz
    dof rx ry rz
  end
  begin
    id 13
    name LeftArm
    direction 0.999943 0.00455037 -0.00961766
    length 11.3419
    axis -23.1648 0.685459 1.22814 xyz
    dof rx ry rz
  end
  begin
    id 14
    name LeftForeArm
    direction 0.999332 0.0131969 0.0340885
    length 8.70632
    axis -9.90633 0.618216 0.0826942 xyz
    dof rx ry rz
  end
  begin
    id 15
    name LeftHand
    direction 0.994373 -0.0366703 0.0993905
    length 5.32135
    axis 0.00675269 0.680415 0.445699 xyz
    dof rx ry rz
  end
  begin
    id 16
    name RightShoulderDummy
    direction -0.967298 0.252589 -0.0230903
    length 3.68488
    axis -0.000934958 0.0245693 1.46543 xyz
  end
  begin
    id 17
    name RightShoulder
    direction -0.975062 0.221602 0.0120823
    length 3.13809
    axis 0.216257 0.0246515 1.45863 xyz
    dof rx ry rz
  end
  begin
    id 18
    name RightArm
    direction -0.99886 -0.00851186 -0.0469687
    length 10.3947
    axis -23.196 0.23503 -0.532632 xyz
    dof rx ry rz
  end
  begin
    id 19
    name RightForeArm
    direction -0.99909 0.00114866 0.0426317
    length 8.68355
    axis -9.91764 -0.134943 0.610517 xyz
    dof rx ry rz
  end
  begin
    id 20
    name RightHand
    direction -0.992888 -0.0489538 0.10852
    length 5.28593
    axis -0.00275396 -0.197403 0.246414 xyz
    dof rx ry rz
  end
  begin
    id 21
    name LeftUpLegDummy
    direction 1 -2.30186e-007 -8.31532e-007
    length 4.04083
    axis 0 0 0 xyz
  end
  begin
    id 22
    name LeftUpLeg
    direction -0.000920097 -1 2.79241e-006
    length 17.4221
    axis -3.48782 0.00143434 -0.0532288 xyz
    dof rx ry rz
  end
  begin
    id 23
    name LeftLeg
    direction -0.000920097 -1 2.7912e-006
    length 17.1239
    axis 3.68162 -0.00806512 -0.0529896 xyz
    dof rx ry rz
  end
  begin
    id 24
    name LeftFoot
    direction -2.57845e-005 -3.987e-007 1
    length 6.72091
    axis 3.02372e-005 -0.00147829 -0.214229 xyz
    dof rx ry rz
  end
  begin
    id 25
    name LeftToes
    direction 0.00813577 -0.00488255 0.999955
    length 3.85048
    axis 3.89895e-005 -0.0014783 -0.214229 xyz
    dof rx ry rz
  end
:hierarchy
  begin
    root RightUpLegDummy SpineDummy LeftUpLegDummy
    RightUpLegDummy RightUpLeg
    RightUpLeg RightLeg
    RightLeg RightFoot
    RightFoot RightToes
    SpineDummy Spine
    Spine Spine1
    Spine1 HEadDummy LeftShoulder1Dummy RightShoulderDummy
    HEadDummy HEad
    LeftShoulder1Dummy LeftShoulder1
    LeftShoulder1 LeftArm
    LeftArm LeftForeArm
    LeftForeArm LeftHand
    RightShoulderDummy RightShoulder
    RightShoulder RightArm
    RightArm RightForeArm
    RightForeArm RightHand
    LeftUpLegDummy LeftUpLeg
    LeftUpLeg LeftLeg
    LeftLeg LeftFoot
    LeftFoot LeftToes
  end

:SAMPLES-PER-SECOND 30
:FULLY-SPECIFIED
:DEGREES
90
root  -35.4151 34.7689 8.85134 -170.677 79.6888 179.775
RightUpLeg  -6.43741 -15.573 -1.2406
RightLeg  3.80481 -1.62273 -0.00248281
RightFoot  4.95484 0.025993 0.0131139
RightToes  -24.6176 -0.102173 -0.212861
Spine  -2.54721 -0.0124464 0.155982
Spine1  -5.17513 0.105597 0.905551
HEad  -63.8011 -4.59572 5.59073
LeftShoulder1  -1.94126e-019 -3.10601e-018 -2.51263e-017
LeftArm  -22.5095 24.8982 -81.5396
LeftForeArm  10.2474 -25.0562 -4.78337
LeftHand  -0.0239892 2.96469 0.389929
RightShoulder  -4.96962e-017 0 -2.36833e-017
RightArm  -23.8667 -24.7764 76.2035
RightForeArm  36.3344 19.598 2.32795
RightHand  -0.00614837 -3.92898 1.29226
LeftUpLeg  -6.08033 1.92261 1.58272
LeftLeg  4.19634 13.7327 0.121573
LeftFoot  5.20765 -0.0564308 1.40238
LeftToes  -20.9338 1.83942e-006 5.51297e-008
91
root  -35.4351 34.8312 8.86145 -170.605 79.4331 179.749
RightUpLeg  -5.75875 -15.8604 -1.17735
RightLeg  2.21489 -1.59529 0.0415584
RightFoot  5.74131 0.0272909 -0.00543262
RightToes  -24.6275 -0.102142 -0.21273
Spine  -2.7087 -0.0322022 0.0354885
Spine1  -5.47732 0.055326 0.710928
HEad  -62.1053 -5.28459 5.94154
LeftShoulder1  -1.94126e-019 -3.10601e-018 -2.51263e-017
LeftArm  -32.7608 25.5012 -81.5498
LeftForeArm  -14.4947 -30.7297 -7.43284
LeftHand  -0.0825285 9.57455 -0.796295
RightShoulder  -4.96962e-017 0 -2.36833e-017
RightArm  -28.3925 -24.7126 75.8057
RightForeArm  21.2191 23.0486 3.7605
RightHand  -0.20082 -7.63685 7.67313
LeftUpLeg  -5.56644 2.02001 1.59531
LeftLeg  2.74059 13.4181 -0.21881
LeftFoot  5.98152 -0.0733789 1.56597
LeftToes  -21.1004 1.83942e-006 5.51297e-008
92
root  -35.4547 34.8569 8.88199 -170.578 79.1903 179.913
RightUpLeg  -5.2927 -16.0283 -1.13167
RightLeg  1.54443 -1.66419 0.0626702
RightFoot  6.05142 0.0284734 -0.0200266
RightToes  -24.4699 -0.102119 -0.212588
Spine  -2.82716 -0.0407904 -0.0341676
Spine1  -5.70913 0.0512889 0.569482
HEad  -60.3428 -6.06043 6.05014
LeftShoulder1  -1.94126e-019 -3.10601e-018 -2.51263e-017
LeftArm  -36.827 25.6504 -81.5583
LeftForeArm  -32.9195 -37.9328 -10.3731
LeftHand  -0.0734708 11.2183 -0.229489
RightShoulder  -4.96962e-017 0 -2.36833e-017
RightArm  -28.7305 -25.4384 75.1765
RightForeArm  14.8422 32.2026 6.19997
RightHand  -0.300822 -9.11545 7.42687
LeftUpLeg  -5.19807 1.9226 1.67044
LeftLeg  2.09651 13.2996 -0.365065
LeftFoot  6.30692 -0.0811113 1.63371
LeftToes  -21.0472 1.83942e-006 5.51297e-008
93
root  -35.4518 34.8798 8.90548 -170.804 78.9803 179.998
RightUpLeg  -4.6355 -16.1559 -1.15627
RightLeg  0.919474 -1.72157 0.0834714
RightFoot  6.34857 0.0296557 -0.0335773
RightToes  -24.6197 -0.102105 -0.212436
Spine  -2.89609 -0.0229537 -0.123528
Spine1  -5.83092 0.12122 0.378729
HEad  -59.1375 -6.92944 6.09116
LeftShoulder1  -1.94126e-019 -3.10601e-018 -2.51263e-017
LeftArm  -36.9497 24.693 -80.9549
LeftForeArm  -30.2462 -47.37 -13.9931
LeftHand  0.0850363 10.2813 3.2002
RightShoulder  -4.96962e-017 0 -2.36833e-017
RightArm  -25.8939 -25.6081 73.9505
RightForeArm  18.9546 43.3507 9.23783
RightHand  -0.112088 -9.69061 1.51911
LeftUpLeg  -4.58926 1.76009 1.76064
LeftLeg  1.39795 13.221 -0.52279
LeftFoot  6.70913 -0.0928931 1.72352
LeftToes  -21.4632 1.83942e-006 5.51297e-008
94
root  -35.454 34.9166 8.93445 -171.192 78.9484 -179.997
RightUpLeg  -3.91902 -15.9892 -1.21688
RightLeg  0.275042 -1.9104 0.11397
RightFoot  6.69384 0.0321834 -0.0654551
RightToes  -24.5 -0.102101 -0.212272
Spine  -2.98987 0.00734471 -0.197479
Spine1  -5.97977 0.209994 0.228426
HEad  -59.064 -7.64905 5.83288
LeftShoulder1  -1.94126e-019 -3.10601e-018 -2.51263e-017
LeftArm  -35.6415 22.813 -79.3873
LeftForeArm  -18.2874 -56.1032 -18.4339
LeftHand  0.263682 10.7148 6.71185
RightShoulder  -4.96962e-017 0 -2.36833e-017
RightArm  -23.8057 -24.5418 72.3624
RightForeArm  23.8594 52.8976 12.9138
RightHand  0.0721893 -10.7169 -2.73596
LeftUpLeg  -3.78833 1.83663 1.82478
LeftLeg  0.508529 13.0703 -0.718392
LeftFoot  7.18668 -0.104257 1.82163
LeftToes  -21.4949 1.83942e-006 5.51297e-008
95
root  -35.4345 34.9395 8.9594 -171.125 79.1474 -179.553
RightUpLeg  -3.34479 -15.6988 -1.20278
RightLeg  -0.131059 -1.99279 0.13294
RightFoot  6.90182 0.0337876 -0.0833819
RightToes  -24.3013 -0.102105 -0.212098
Spine  -3.15247 0.0698752 -0.182732
Spine1  -6.24699 0.34389 0.167337
HEad  -59.389 -8.12615 5.40932
LeftShoulder1  -1.94126e-019 -3.10601e-018 -2.51263e-017
LeftArm  -32.8814 20.4669 -76.8924
LeftForeArm  -8.60433 -62.2339 -23.1374
LeftHand  0.224863 10.1587 6.5078
RightShoulder  -4.96962e-017 0 -2.36833e-017
RightArm  -23.1159 -22.6321 70.8734
RightForeArm  26.6516 60.6055 17.6893
RightHand  0.19097 -11.2286 -4.8177
LeftUpLeg  -3.13206 1.81843 1.94607
LeftLeg  0.0178919 13.2755 -0.842448
LeftFoot  7.44824 -0.112035 1.9155
LeftToes  -21.5847 1.83942e-006 5.51297e-008
96
root  -35.4247 34.952 8.95107 -171.435 78.9682 -179.438
RightUpLeg  -2.95197 -16.1272 -1.31346
RightLeg  0.0479295 -1.71659 0.109175
RightFoot  6.82273 0.0319498 -0.0515048
RightToes  -24.138 -0.102118 -0.211911
Spine  -3.31328 -0.0542451 -0.224986
Spine1  -6.5024 0.103599 0.158012
HEad  -60.2527 -8.12857 4.98203
LeftShoulder1  -1.94126e-019 -3.10601e-018 -2.51263e-017
LeftArm  -29.5811 17.9044 -74.2685
LeftForeArm  -1.1873 -66.6563 -28.246
LeftHand  0.134084 9.02477 5.54838
RightShoulder  -4.96962e-017 0 -2.36833e-017
RightArm  -22.6512 -19.9464 69.5378
RightForeArm  31.8119 66.6185 23.4062
RightHand  0.188428 -10.3965 -5.44693
LeftUpLeg  -2.65409 1.07073 1.96395
LeftLeg  -0.110487 13.8506 -0.90908
LeftFoot  7.45447 -0.117787 1.99909
LeftToes  -21.1815 1.83942e-006 5.51297e-008
97
root  -35.3898 34.9573 8.96754 -171.71 79.3788 -179.268
RightUpLeg  -2.54368 -15.6614 -1.39647
RightLeg  0.128674 -1.7725 0.110248
RightFoot  6.79154 0.0329235 -0.0593327
RightToes  -24.1086 -0.102141 -0.211712
Spine  -3.43309 -0.00226876 -0.244775
Spine1  -6.68213 0.218673 0.137769
HEad  -61.3557 -7.82298 4.61241
LeftShoulder1  -1.94126e-019 -3.10601e-018 -2.51263e-017
LeftArm  -26.991 15.4116 -72.1211
LeftForeArm  6.91838 -69.9859 -33.6336
LeftHand  0.104233 8.50647 5.29159
RightShoulder  -4.96962e-017 0 -2.36833e-017
RightArm  -22.3706 -16.8642 68.6329
RightForeArm  40.3453 71.2868 30.1834
RightHand  0.132496 -8.99993 -5.55753
LeftUpLeg  -2.09159 1.0583 1.99768
LeftLeg  -0.117081 14.2477 -0.936237
LeftFoot  7.37949 -0.119587 2.03669
LeftToes  -20.9656 1.83942e-006 5.51297e-008
